<?xml version="1.0" standalone="no"?>
<!DOCTYPE svg PUBLIC "-//W3C//DTD SVG 20010904//EN"
 "http://www.w3.org/TR/2001/REC-SVG-20010904/DTD/svg10.dtd">
<svg version="1.0" xmlns="http://www.w3.org/2000/svg"
 width="800.000000pt" height="800.000000pt" viewBox="0 0 800.000000 800.000000"
 preserveAspectRatio="xMidYMid meet">

<g transform="translate(0.000000,800.000000) scale(0.100000,-0.100000)"
fill="#000000" stroke="none">
<path d="M3795 7989 c-787 -40 -1556 -317 -2180 -784 -315 -237 -629 -554
-849 -860 -246 -342 -427 -694 -556 -1085 -380 -1148 -225 -2395 422 -3410
1093 -1712 3299 -2331 5123 -1440 887 434 1592 1193 1955 2104 308 777 368
1614 173 2426 -98 410 -281 842 -504 1193 -648 1017 -1693 1680 -2884 1831
-108 14 -480 38 -530 34 -11 0 -87 -4 -170 -9z m670 -468 c420 -59 763 -164
1127 -347 956 -479 1651 -1372 1877 -2414 65 -297 86 -528 78 -855 -6 -240
-19 -364 -58 -570 -239 -1272 -1166 -2320 -2404 -2718 -200 -64 -398 -109
-645 -143 -179 -26 -701 -26 -880 0 -470 66 -842 185 -1229 391 -941 502
-1612 1406 -1815 2445 -51 259 -61 375 -61 690 0 315 10 430 61 690 207 1064
913 1992 1885 2480 390 196 803 318 1214 359 61 6 124 13 140 15 17 3 152 3
300 1 197 -3 308 -9 410 -24z"/>
<path d="M2584 5861 c-263 -65 -471 -268 -556 -541 l-23 -75 -3 -1295 c-2
-906 0 -1318 8 -1372 44 -310 256 -551 565 -644 56 -17 141 -19 1375 -21 1107
-3 1326 -1 1390 11 298 56 532 272 612 566 l23 85 0 1325 0 1325 -22 80 c-73
259 -259 458 -508 543 l-80 27 -1355 2 c-1263 2 -1360 1 -1426 -16z m2931
-771 l0 -335 -335 0 -335 0 -3 325 c-1 179 0 331 3 338 3 10 75 12 337 10
l333 -3 0 -335z m-1350 -515 c240 -63 436 -260 502 -505 23 -86 23 -253 0
-340 -60 -229 -236 -418 -462 -496 -72 -26 -93 -28 -215 -28 -118 0 -145 3
-213 26 -347 116 -551 474 -468 822 54 227 227 424 441 502 124 45 287 52 415
19z m-1193 -284 c-1 -7 -14 -51 -27 -96 -110 -381 1 -793 288 -1072 98 -95
178 -151 301 -209 531 -250 1173 -21 1431 511 83 171 110 308 103 522 -5 123
-10 163 -33 238 -15 50 -28 97 -29 105 -1 13 37 15 289 15 l290 0 3 -830 c2
-902 3 -894 -53 -990 -35 -59 -105 -122 -173 -153 l-57 -27 -1315 0 -1315 0
-66 32 c-80 39 -150 111 -187 191 l-27 57 -3 850 c-1 467 0 855 3 862 7 20
581 14 577 -6z"/>
</g>
</svg>
